<?xml version="1.0" encoding="UTF-8" standalone="no"?>
<svg
   id="ico_boost_inactive"
   width="128"
   height="128"
   viewBox="0 0 128 128"
   version="1.1"
   sodipodi:docname="ico_boost_inactive.svg"
   xml:space="preserve"
   inkscape:version="1.4.3 (0d15f75, 2025-12-25)"
   xmlns:inkscape="http://www.inkscape.org/namespaces/inkscape"
   xmlns:sodipodi="http://sodipodi.sourceforge.net/DTD/sodipodi-0.dtd"
   xmlns="http://www.w3.org/2000/svg"
   xmlns:svg="http://www.w3.org/2000/svg"><sodipodi:namedview
     id="namedview1"
     pagecolor="#ffffff"
     bordercolor="#000000"
     borderopacity="0.25"
     inkscape:showpageshadow="2"
     inkscape:pageopacity="0.0"
     inkscape:pagecheckerboard="0"
     inkscape:deskcolor="#d1d1d1"
     inkscape:zoom="7.9999999"
     inkscape:cx="50.1875"
     inkscape:cy="78.687501"
     inkscape:window-width="1920"
     inkscape:window-height="1009"
     inkscape:window-x="1912"
     inkscape:window-y="-8"
     inkscape:window-maximized="1"
     inkscape:current-layer="ico_boost_inactive" /><defs
     id="defs1"><style
       id="style1">
      .cls-1 {
        fill: #fff;
        fill-rule: evenodd;
      }
    </style><style
       id="style1-9">
      .cls-1, .cls-2 {
        fill: #fff;
        fill-rule: evenodd;
      }

      .cls-1 {
        opacity: 0.5;
      }
    </style><style
       id="style1-8">
      .cls-1, .cls-2 {
        fill: #fff;
        fill-rule: evenodd;
      }

      .cls-1 {
        opacity: 0.5;
      }
    </style><style
       id="style1-7">
      .cls-1 {
        fill: #fff;
        fill-rule: evenodd;
      }
    </style></defs><g
     id="g18"
     transform="matrix(1.3810834,0,0,1.3810834,-26.108688,-42.423472)"><g
       id="g1"
       transform="translate(29.371358)"><path
         id="rect1"
         style="opacity:1;fill:#ebe2ca;fill-opacity:1;stroke:#9f9f9f;stroke-width:0"
         d="m 41.801662,63.334168 7.743183,3.542402 -6.332054,9.089188 5.738846,2.257619 -2.926721,4.660432 11.984293,3.847704 -7.663718,13.235284 31.868511,-8.537124 -3.95875,-14.781815 -0.002,-0.0014 -1.66514,-6.214373 -4.1042,-15.317094 -30.580817,8.226458 z m 16.842032,-0.02796 0.799063,3.283993 6.084783,5.163587 6.954252,0.522602 1.26175,4.399517 -6.254142,3.863622 -3.028262,7.382997 0.919039,3.769484 -8.097681,2.167745 4.246055,-8.384661 -11.265868,-3.920905 3.199299,-4.707183 -5.469895,-2.182076 6.0013,-8.980343 -1.559789,-0.712367 z" /><path
         id="path16"
         style="opacity:1;fill:#ebe2ca;fill-opacity:1;stroke:#9f9f9f;stroke-width:0"
         d="M 23.472358,60.598786 -0.7339394,54.149128 -10.46686,90.465158 13.715415,96.90636 28.364422,90.03394 18.686493,79.289968 23.458544,77.078622 19.674399,72.327963 29.741101,67.818836 Z m -8.055419,2.36078 7.5005,2.011824 1.805565,1.124781 -10.163589,4.832978 3.992436,4.901504 -5.341772,2.564196 9.964313,10.082669 -9.150946,4.426936 -6.9692164,-1.994832 -6.052268,-5.499942 4.408324,-5.57033 -6.589804,-4.497487 -0.536104,0.01609 1.096166,-4.385246 0.750863,0.510563 7.973236,-0.235412 6.2857174,-4.856994 z"
         sodipodi:nodetypes="cccccccccccccccccccccccccccc" /></g></g><path
     style="opacity:1;fill:#ebe2ca;fill-opacity:1"
     d="m 38.966414,88.799811 53.152444,-7.204686 2.452305,-4.235144 -45.076729,6.500725 z"
     id="path1"
     sodipodi:nodetypes="ccccc" /><path
     style="opacity:1;fill:#ebe2ca;fill-opacity:1"
     d="M 40.263212,67.082587 80.040877,68.827758 82.0619,65.609535 45.265637,64.764486 Z"
     id="path2"
     sodipodi:nodetypes="ccccc" /><path
     style="opacity:1;fill:#ebe2ca;fill-opacity:1"
     d="M 55.530548,51.239997 82.88117,49.938649 77.534179,47.492472 51.828516,46.976167 Z"
     id="path3"
     sodipodi:nodetypes="ccccc" /></svg>
