<?xml version="1.0" encoding="utf-8"?>
<svg version="1.1" id="icon_bug_link" xmlns="http://www.w3.org/2000/svg" xmlns:xlink="http://www.w3.org/1999/xlink" x="0px"
	 y="0px" viewBox="0 0 128 128" style="enable-background:new 0 0 128 128;" xml:space="preserve">
<style type="text/css">
	.st0{fill-rule:evenodd;clip-rule:evenodd;fill:#FFFFFF;}
</style>
<path class="st0" d="M116,128H76c-6.6,0-12-5.4-12-12l0,0V76c0-6.6,5.4-12,12-12h8l12,12H76v40h40V96l12,12v8
	C128,122.6,122.6,128,116,128L116,128z M116,84l-24,24l-8-8l24-24L96,64h32v32L116,84z M74.7,56c-2.3,0-4.5,0.4-6.7,1.2V52h27.7
	c3.9-3.4,7.3-7.5,9.9-12h17.8c-2.3,5.8-5.5,11.2-9.4,16H74.7z M80.3,29.2c5.4,3.8,9.9,8.9,12.9,14.8H34.8c3.1-5.9,7.5-11,12.9-14.8
	C46.4,21.6,39.7,16,32,16V0c14.6,0,27.3,9.9,31,24c0.3,0,0.7,0,1,0c0.3,0,0.7,0,1,0C68.7,9.9,81.4,0,96,0v16
	C88.2,16,81.6,21.6,80.3,29.2z M60,52v11.1c-2.6,3.3-4,7.3-4,11.5v44.1c-7.3-2.2-13.8-7.4-18.7-14.5c-6.1,4.1-11.2,9.5-14.9,15.8
	H4.7c5.2-12.6,14.2-23.3,25.8-30.4c-0.2-0.5-0.3-1.1-0.4-1.6H0V72h28c0-1,0.1-2.1,0.1-3.1C17.6,61.8,9.5,51.7,4.7,40h17.8
	c2.6,4.5,5.9,8.6,9.9,12H60z"/>
</svg>
