<?xml version="1.0" encoding="UTF-8" standalone="no"?>
<!-- Created with Inkscape (http://www.inkscape.org/) -->

<svg
   width="1920mm"
   height="1080mm"
   viewBox="0 0 1920 1080"
   version="1.1"
   id="svg1"
   sodipodi:docname="weapon_selection.svg"
   inkscape:version="1.4.3 (0d15f75, 2025-12-25)"
   xmlns:inkscape="http://www.inkscape.org/namespaces/inkscape"
   xmlns:sodipodi="http://sodipodi.sourceforge.net/DTD/sodipodi-0.dtd"
   xmlns="http://www.w3.org/2000/svg"
   xmlns:svg="http://www.w3.org/2000/svg">
  <sodipodi:namedview
     id="namedview1"
     pagecolor="#ffffff"
     bordercolor="#000000"
     borderopacity="0.25"
     inkscape:showpageshadow="2"
     inkscape:pageopacity="0.0"
     inkscape:pagecheckerboard="0"
     inkscape:deskcolor="#d1d1d1"
     inkscape:document-units="mm"
     inkscape:zoom="0.056568542"
     inkscape:cx="4472.4504"
     inkscape:cy="1281.631"
     inkscape:window-width="1920"
     inkscape:window-height="1009"
     inkscape:window-x="1912"
     inkscape:window-y="-8"
     inkscape:window-maximized="1"
     inkscape:current-layer="layer1">
    <inkscape:page
       x="0"
       y="0"
       width="1920"
       height="1080"
       id="page2"
       margin="0"
       bleed="0" />
  </sodipodi:namedview>
  <defs
     id="defs1" />
  <g
     inkscape:label="Layer 1"
     inkscape:groupmode="layer"
     id="layer1">
    <path
       id="path137"
       style="fill:#33302e;fill-opacity:1;stroke-width:2.64583;paint-order:markers stroke fill;opacity:1"
       d="M 0 186.80617 L 0 292.33926 L 1414.2946 292.33926 L 1414.2946 940.86143 L 1815.4654 940.86143 L 1815.4654 292.33926 L 1920.0001 292.33926 L 1920.0001 186.80617 L 0 186.80617 z " />
    <path
       id="path163"
       style="opacity:1;fill:#ebe2ca;fill-opacity:1;stroke-width:1.01095"
       d="m 30.7738,210.74169 -5.4157,7.22126 19.3167,14.9841 -19.6779,16.42794 4.1522,5.59656 22.9273,-23.83007 z m 36.1058,0 -5.4157,7.22126 19.3167,14.9841 -19.6779,16.42794 4.1522,5.59656 22.9273,-23.83007 z m 1788.2671,0.001 -22.6978,23.59133 21.0896,20.19566 5.3615,-7.14891 -19.1234,-14.83372 19.481,-16.26361 z m 35.7446,0 -22.6978,23.59133 21.0891,20.19566 5.362,-7.14891 -19.1234,-14.83372 19.481,-16.26361 z m -476.5973,69.22885 -6.3205,6.1836 6.3205,6.1836 6e-4,5.2e-4 6.3179,-6.1836 h 5e-4 v -5.2e-4 l -6.3184,-6.1836 z m 25.277,0 -6.1572,6.02547 -0.1612,0.15813 -5e-4,5.2e-4 0.1617,0.15865 v -5.2e-4 -9.9e-4 l 6.1572,6.02598 6.3206,-6.1836 z m 25.2796,0 -6.3205,6.1836 6.3205,6.1836 6.318,-6.1836 z m 25.277,0 -6.3184,6.1836 6.3184,6.1836 6.3206,-6.1836 z m 25.2796,0 -6.3205,6.1836 6.3205,6.1836 6.3201,-6.1836 z m 25.2791,0 -6.32,6.1836 6.32,6.1836 6.3185,-6.1836 z m 25.2775,0 -6.3205,6.1836 6.3205,6.1836 6.3201,-6.1836 z m 25.2791,0 -6.32,6.1836 6.32,6.1836 6.3185,-6.1836 z m 25.2776,0 -6.3185,6.1836 6.3185,6.1836 6.32,-6.1836 z m 25.279,0 -6.32,6.1836 6.32,6.1836 6.3185,-6.1836 z m 25.2776,0 -6.3185,6.1836 6.3205,6.1836 6.318,-6.1836 z m 25.279,0 -6.3184,6.1836 6.3205,6.1836 6.3185,-6.1836 z m 25.2796,0 -6.3205,6.1836 6.3205,6.1836 6.318,-6.1836 z m 25.277,0 -6.3179,6.1836 6.32,6.1836 6.3185,-6.1836 -6.3185,-6.1836 z m 25.2796,0 -6.3184,6.1836 6.3184,6.1836 6.3185,-6.1836 z m 25.2776,0 -6.3185,6.1836 6.32,6.1836 2.7668,-2.70783 v 9.9e-4 5.2e-4 l 3.5522,-3.47679 h 5e-4 v -5.2e-4 l -3.5527,-3.47627 -2.7668,-2.70733 z M 0,279.97209 v 12.3672 l 6.32001,-6.1836 z m 25.2791,0 -6.3201,6.1836 6.3201,6.1836 6.3185,-6.1836 z m 25.2775,0 -6.3205,6.1836 6.3205,6.1836 6.32051,-6.1836 z m 25.2791,0 -6.32,6.1836 6.32,6.1836 6.3185,-6.1836 z m 25.27751,0 -6.3185,6.1836 6.3185,6.1836 6.3205,-6.1836 z m 25.27909,0 -6.32,6.1836 6.32,6.1836 6.3185,-6.1836 z m 25.2775,0 -6.3185,6.1836 6.3185,6.1836 6.3206,-6.1836 z m 25.2791,0 -6.32,6.1836 6.32,6.1836 6.3205,-6.1836 z m 25.2796,0 -6.3206,6.1836 6.3206,6.1836 6.31851,-6.1836 z m 25.2775,0 -6.3205,6.1836 6.3205,6.1836 6.32,-6.1836 z m 25.2791,0 -6.3206,6.1836 6.3206,6.1836 6.3185,-6.1836 z m 25.27751,0 -6.3185,6.1836 6.3185,6.1836 6.32,-6.1836 z m 25.2791,0 -6.32,6.1836 6.32,6.1836 6.3185,-6.1836 z m 25.2775,0 -6.3185,6.1836 6.3185,6.1836 6.32,-6.1836 z m 25.2791,0 -6.3206,6.1836 6.3206,6.1836 6.3205,-6.1836 z m 25.2791,0 -6.3201,6.1836 6.3201,6.1836 6.3184,-6.1836 z m 25.2775,0 -6.32,6.1836 6.32,6.1836 6.3205,-6.1836 z m 25.2796,0 -6.3206,6.1836 6.3206,6.1836 6.3179,-6.1836 z m 25.277,0 -6.3185,6.1836 6.3185,6.1836 6.3205,-6.1836 z m 25.2796,0 -6.3206,6.1836 6.3206,6.1836 6.318,-6.1836 z m 25.277,0 -6.318,6.1836 6.318,6.1836 6.3205,-6.1836 z m 25.2796,0 -6.3205,6.1836 6.3205,6.1836 6.32,-6.1836 z m 25.2791,0 -6.3206,6.1836 6.3206,6.1836 6.3185,-6.1836 z m 25.2775,0 -6.3205,6.1836 6.3205,6.1836 6.32,-6.1836 z m 25.2791,0 -6.3201,6.1836 6.3201,6.1836 6.3185,-6.1836 z m 25.2775,0 -6.3185,6.1836 6.3185,6.1836 6.32,-6.1836 z m 25.2791,0 -6.32,6.1836 6.32,6.1836 6.3185,-6.1836 z m 25.2775,0 -6.3185,6.1836 6.3185,6.1836 6.32,-6.1836 z m 25.2791,0 -6.32,6.1836 6.32,6.1836 6.3205,-6.1836 z m 25.2796,0 -6.3206,6.1836 6.3206,6.1836 6.3179,-6.1836 z m 25.277,0 -6.32,6.1836 6.32,6.1836 6.3205,-6.1836 z m 25.2796,0 -6.3206,6.1836 6.3206,6.1836 6.3185,-6.1836 z m 25.27752,0 -6.31852,6.1836 6.31852,6.1836 6.32,-6.1836 z m 25.2791,0 -6.3206,6.1836 6.3206,6.1836 6.3185,-6.1836 z m 25.2775,0 -6.3185,6.1836 6.3201,6.1836 6.3184,-6.1836 z m 25.2791,0 -6.3185,6.1836 6.3206,6.1836 6.3179,-6.1836 z m 25.2791,0 -6.3201,6.1836 6.3201,6.1836 6.3184,-6.1836 z m 25.2775,0 -6.3185,6.1836 6.3206,6.1836 6.3179,-6.1836 -6.3179,-6.1836 z m 25.2791,0 -6.318,6.1836 6.318,6.1836 6.3184,-6.1836 z m 25.2775,0 -6.3185,6.1836 6.3206,6.1836 6.3184,-6.1836 -6.3184,-6.1836 z m 25.27907,0 -6.318,6.1836 6.318,6.1836 6.3185,-6.1836 z m 25.2775,0 -6.318,6.1836 6.3201,6.1836 6.3185,-6.1836 -6.3185,-6.1836 z m 25.2796,0 -6.3185,6.1836 6.3201,6.1836 6.3184,-6.1836 -6.3184,-6.1836 z m 25.2791,0 -6.3206,6.1836 6.3206,6.1836 6.32,-6.1836 z m 25.2791,0 -6.3201,6.1836 6.3201,6.1836 6.3184,-6.1836 z m 25.2775,0 -6.3185,6.1836 6.3185,6.1836 6.3205,-6.1836 z m 25.2791,0 -6.3201,6.1836 6.3201,6.1836 6.3184,-6.1836 z m 25.2775,0 -6.3185,6.1836 6.3185,6.1836 6.3205,-6.1836 z m 23.9784,0 -6.3201,6.1836 6.3201,6.1836 0.6506,-0.63665 0.787,-0.76945 4.8829,-4.77749 -4.8829,-4.77698 -0.7865,-0.76997 -5e-4,5.2e-4 z m 25.2796,0 -6.3206,6.1836 6.3206,6.1836 6.3184,-6.1836 z m 25.277,0 -6.3201,6.1836 6.3201,6.1836 6.3205,-6.1836 z m 25.2796,0 -6.3206,6.1836 6.3206,6.1836 6.3184,-6.1836 z m 25.277,0 -6.318,6.1836 6.318,6.1836 6.3205,-6.1836 z m 25.2796,0 -6.3206,6.1836 6.3206,6.1836 6.3184,-6.1836 z m 25.277,0 -6.318,6.1836 6.318,6.1836 6.3205,-6.1836 z m 25.2796,0 -6.3206,6.1836 6.3206,6.1836 6.32,-6.1836 z m 429.7345,0 -6.3206,6.1836 6.3206,6.1836 6.3184,-6.1836 z m 25.277,0 -6.318,6.1836 6.318,6.1836 6.3205,-6.1836 z m 25.2796,0 -6.3206,6.1836 6.3206,6.1836 6.3184,-6.1836 z m 25.277,0 -6.318,6.1836 6.318,6.1836 6.3205,-6.1836 z m 25.2796,0 -6.3206,6.1836 6.3206,6.1836 0.1369,-0.13281 V 280.1049 Z" />
  </g>
</svg>
